<svg id="visual" viewBox="0 0 900 600" width="900" height="600" xmlns="http://www.w3.org/2000/svg" xmlns:xlink="http://www.w3.org/1999/xlink" version="1.1"><rect x="0" y="0" width="900" height="600" fill="#002233"></rect><path d="M700 600L680 600L680 557L596 557L596 514L644 514L644 471L580 471L580 429L622 429L622 386L699 386L699 343L637 343L637 300L568 300L568 257L696 257L696 214L599 214L599 171L581 171L581 129L630 129L630 86L662 86L662 43L578 43L578 0L900 0L900 43L900 43L900 86L900 86L900 129L900 129L900 171L900 171L900 214L900 214L900 257L900 257L900 300L900 300L900 343L900 343L900 386L900 386L900 429L900 429L900 471L900 471L900 514L900 514L900 557L900 557L900 600L900 600Z" fill="#ffd000"></path></svg>